<svg id="Layer_1" data-name="Layer 1" xmlns="http://www.w3.org/2000/svg" viewBox="0 0 200 50"><defs><style>.cls-1{font-size:45.64px;}.cls-1,.cls-2{fill:#fdc20f;}.cls-1,.cls-3{font-family:DBHelvethaicaX-77BdCond, DB Helvethaica X;}.cls-3{font-size:19px;fill:#fff;}</style></defs><title>brand</title><text class="cls-1" transform="translate(1.01 34.26)">THAIWEBEASY</text><circle class="cls-2" cx="60.5" cy="7.5" r="2.5"/><path class="cls-2" d="M63,5a17.38,17.38,0,0,1,4.4-2,12.74,12.74,0,0,1,4.89-.49,8,8,0,0,1,4.53,2.1,10.8,10.8,0,0,1,2.64,4.23l-.69-.26A30.78,30.78,0,0,1,82.3,7,19.32,19.32,0,0,1,86,6a9.24,9.24,0,0,1,2-.12,3.91,3.91,0,0,1,1.93.55A2.5,2.5,0,0,1,91,8.08,5.15,5.15,0,0,1,91,10a6,6,0,0,0-.19-1.86,2.12,2.12,0,0,0-1.09-1.33,5.58,5.58,0,0,0-3.55-.12,24,24,0,0,0-3.54,1.16c-1.15.48-2.3,1-3.4,1.58l-.49.26-.2-.52A10.42,10.42,0,0,0,76.15,5.3a7.43,7.43,0,0,0-4-2,12.11,12.11,0,0,0-4.64.18A21.69,21.69,0,0,0,63,5Z"/><text class="cls-3" transform="translate(136.5 46.25)">ADMIN HR</text></svg>