<svg id="Layer_1" data-name="Layer 1" xmlns="http://www.w3.org/2000/svg" xmlns:xlink="http://www.w3.org/1999/xlink" viewBox="0 0 78.4 64"><defs><style>.cls-1,.cls-3{fill:none;}.cls-2{clip-path:url(#clip-path);}.cls-3{stroke:#333;stroke-miterlimit:10;stroke-width:0.2px;}.cls-4{font-size:7.95px;font-family:Kanit-Bold, Kanit;font-weight:700;}.cls-4,.cls-9{fill:#ffd85d;}.cls-5{letter-spacing:-0.02em;}.cls-6{letter-spacing:-0.02em;}.cls-7{letter-spacing:-0.04em;}.cls-8{letter-spacing:-0.04em;}.cls-10{font-size:22.47px;fill:#333;font-family:Pattaya-Regular, Pattaya;}</style><clipPath id="clip-path"><rect class="cls-1" x="56.93" y="17.94" width="14.08" height="15.83"/></clipPath></defs><title>home</title><g class="cls-2"><path class="cls-3" d="M70.81,25,63.91,18,57,25a.29.29,0,0,0,0,.38.22.22,0,0,0,.34,0l.8-.81v8.84H69.69V24.61l.8.81a.2.2,0,0,0,.16.07.22.22,0,0,0,.18-.08.29.29,0,0,0,0-.38Zm-8.34,7.89V28.68a1.45,1.45,0,1,1,2.89,0v4.24Zm6.74,0H65.84V28.68a1.93,1.93,0,1,0-3.85,0v4.24H58.62V24.11l5.29-5.41,5.3,5.41Zm0,0"/></g><text class="cls-4" transform="translate(22.2 39.72) scale(0.91 1)">By T<tspan class="cls-5" x="17.4" y="0">h</tspan><tspan x="22.08" y="0">aiwe</tspan><tspan class="cls-6" x="39.96" y="0">b</tspan><tspan class="cls-7" x="44.59" y="0">e</tspan><tspan x="48.69" y="0">a</tspan><tspan class="cls-8" x="53.21" y="0">s</tspan><tspan x="56.72" y="0">y</tspan></text><path class="cls-9" d="M49,34.64c.82-.52,2.24-1.09,2.59.23a.15.15,0,0,0,.22.09c.75-.44,1.62-.44,1.91.55a.15.15,0,0,0,.29-.08,1.26,1.26,0,0,0-1.28-1.08,2.91,2.91,0,0,0-.77.2c-.45.14-.11.22-.23-.2-.34-1.21-2.26-.37-2.88,0-.16.11,0,.37.15.26Z"/><text class="cls-10" transform="translate(23.46 33.19) scale(0.91 1)">ome</text><path d="M2.31,14.51l0,0L4.36,17a8.74,8.74,0,0,1,.74-1.61l-2-1.75A9.72,9.72,0,0,0,2.31,14.51Z"/><path d="M.83,17c-.07.19-.14.38-.2.58l3.16,2.29A12.21,12.21,0,0,1,4.05,18l-2.6-2.27A9.3,9.3,0,0,0,.83,17Z"/><path d="M.32,19.67a4,4,0,0,0,1,3.09,4.23,4.23,0,0,0,3,.88.55.55,0,0,0-.07-.28A1.92,1.92,0,0,1,4,22.9a5.44,5.44,0,0,1-.27-1.83L.33,19.27C.32,19.4.32,19.54.32,19.67Z"/><polygon points="14.36 39.69 19.7 39.69 20.78 34.1 15.27 34.98 14.36 39.69"/><path d="M20.24,9.14,17.87,21.3H12.43L14.8,9.14a13.13,13.13,0,0,0-1.49-.08A13.72,13.72,0,0,0,7.19,10.6a15.8,15.8,0,0,0-2.71,1.73l-.31.26,1.58,1.82A8.65,8.65,0,0,1,9,11.91L5.05,32.05l5.59-1.29,1.24-6.42h5.45L16,31.4l5.59-1.32,4-20.94Z"/><polygon points="3.57 39.69 8.91 39.69 9.87 34.77 4.36 35.62 3.57 39.69"/></svg>