<svg id="Layer_1" data-name="Layer 1" xmlns="http://www.w3.org/2000/svg" viewBox="0 0 119.2 66.81"><defs><style>.cls-1{font-size:8.43px;font-family:Kanit-Bold, Kanit;font-weight:700;}.cls-1,.cls-8{fill:#ffd85d;}.cls-2{letter-spacing:-0.01em;}.cls-3{letter-spacing:-0.03em;}.cls-4{letter-spacing:-0.03em;}.cls-5{letter-spacing:-0.04em;}.cls-6{letter-spacing:0em;}.cls-7{font-size:23.83px;fill:#333;font-family:Pattaya-Regular, Pattaya;}</style></defs><title>logo-acountTWE</title><text class="cls-1" transform="translate(37.11 49.18)">By T<tspan class="cls-2" x="18.45" y="0">h</tspan><tspan x="23.41" y="0">aiwe</tspan><tspan class="cls-3" x="42.38" y="0">b</tspan><tspan class="cls-4" x="47.28" y="0">e</tspan><tspan x="51.64" y="0">a</tspan><tspan class="cls-5" x="56.43" y="0">s</tspan><tspan class="cls-6" x="60.15" y="0">y</tspan></text><text class="cls-7" transform="translate(37.01 41.34)">counting</text><path class="cls-8" d="M68.39,43.8c.91-.54,2.6-1.2,3,.24a.17.17,0,0,0,.24.1c.84-.45,1.88-.53,2.24.57.07.21.4.12.33-.09a1.43,1.43,0,0,0-1.58-1.14,4.11,4.11,0,0,0-.85.23c-.42.11-.09.16-.24-.25-.46-1.29-2.61-.38-3.35,0a.17.17,0,0,0,.18.29Z"/><path d="M9.64,22.93l1.55,3.55c.33-.08.68-.14,1.05-.2L10.41,22.8Z"/><path d="M4.92,24.61l-.2.11A7.8,7.8,0,0,0,2.21,27a5,5,0,0,0-.89,2.79,3.12,3.12,0,0,0,1.06,2.54A3.82,3.82,0,0,0,5,33.21a4.14,4.14,0,0,0,2.35-.63,1.93,1.93,0,0,0,.94-1.66A3.12,3.12,0,0,0,8,29.69q-.26-.6-.51-.6a3,3,0,0,1,.24-.51l-.12,0Z"/><path d="M6.75,23.74,9,27.32a4.9,4.9,0,0,1,.76-.38l.22-.09L8.22,23.26Q7.46,23.47,6.75,23.74Z"/><path d="M39.77,13.59l1.54-7.25a11,11,0,0,0-4.63-.83q-4.8,0-10.52,5.12a57.65,57.65,0,0,0-9.83,12.15c-1.22-.12-2.24-.17-3.06-.17-.42,0-.83,0-1.24,0l1.67,3.44-.09,0,.72-.06A80.91,80.91,0,0,0,8.1,39.36a47.18,47.18,0,0,0-1.76,5.86,21.61,21.61,0,0,0-.62,4.65q0,4,2.78,5.38a6.46,6.46,0,0,0,2.25.68,23,23,0,0,0,2.81.15,5.22,5.22,0,0,1-.8-3.26,45.91,45.91,0,0,1,2.17-12.09,99.66,99.66,0,0,1,5.43-14.67,23.67,23.67,0,0,1,3.87.66,24.93,24.93,0,0,1,4,1.46L23.7,49.42h8.43L36.06,31h0l-7.89-2.62.45-2.71L36.69,28l2.64-12.36-8-2-2.55,11.9a38.59,38.59,0,0,0-7.14-2,61.06,61.06,0,0,1,5.2-8.72,17.65,17.65,0,0,1,5.34-5.17l-.4,1.9Z"/></svg>