<svg id="Layer_1" data-name="Layer 1" xmlns="http://www.w3.org/2000/svg" viewBox="0 0 78.4 64"><defs><style>.cls-1{font-size:5.61px;font-family:Kanit-Bold, Kanit;font-weight:700;}.cls-1,.cls-8{fill:#ffd85d;}.cls-2{letter-spacing:-0.01em;}.cls-3{letter-spacing:-0.03em;}.cls-4{letter-spacing:-0.03em;}.cls-5{letter-spacing:-0.05em;}.cls-6{letter-spacing:0em;}.cls-7{font-size:15.86px;fill:#e6e6e5;font-family:Pattaya-Regular, Pattaya;}.cls-9{fill:#f2f2f2;}</style></defs><title>logo-acountTWE-01</title><text class="cls-1" transform="translate(24.49 39.5)">By T<tspan class="cls-2" x="12.28" y="0">h</tspan><tspan x="15.58" y="0">aiwe</tspan><tspan class="cls-3" x="28.21" y="0">b</tspan><tspan class="cls-4" x="31.47" y="0">e</tspan><tspan x="34.37" y="0">a</tspan><tspan class="cls-5" x="37.56" y="0">s</tspan><tspan class="cls-6" x="40.04" y="0">y</tspan></text><text class="cls-7" transform="translate(24.42 34.29)">counting</text><path class="cls-8" d="M45.31,35.92c.61-.36,1.73-.8,2,.16a.12.12,0,0,0,.17.07c.55-.3,1.25-.35,1.49.38a.11.11,0,0,0,.22-.06,1,1,0,0,0-1.05-.76,3.4,3.4,0,0,0-.57.15c-.28.08-.06.11-.16-.17-.31-.85-1.74-.25-2.23,0a.11.11,0,0,0,.12.19Z"/><path class="cls-9" d="M6.2,22l1,2.36.69-.13L6.71,22Z"/><path class="cls-9" d="M3.06,23.15l-.13.07a5.2,5.2,0,0,0-1.67,1.54,3.22,3.22,0,0,0-.59,1.85,2.06,2.06,0,0,0,.7,1.69,2.54,2.54,0,0,0,1.71.57,2.75,2.75,0,0,0,1.56-.41,1.28,1.28,0,0,0,.63-1.11,2.15,2.15,0,0,0-.17-.82c-.11-.26-.23-.4-.34-.4a2.11,2.11,0,0,1,.16-.34l-.08,0Z"/><path class="cls-9" d="M4.28,22.57,5.74,25a3.06,3.06,0,0,1,.51-.26l.15-.06L5.26,22.25A9.37,9.37,0,0,0,4.28,22.57Z"/><path class="cls-9" d="M26.26,15.81l1-4.82a7.26,7.26,0,0,0-3.08-.55q-3.19,0-7,3.4a38.68,38.68,0,0,0-6.54,8.09c-.82-.08-1.5-.11-2-.11-.28,0-.55,0-.83,0l1.12,2.29-.06,0,.47,0A54,54,0,0,0,5.18,33,31,31,0,0,0,4,36.87,13.85,13.85,0,0,0,3.6,40c0,1.79.61,3,1.84,3.57A4.15,4.15,0,0,0,7,44a16.55,16.55,0,0,0,1.86.1,3.48,3.48,0,0,1-.53-2.17,30.72,30.72,0,0,1,1.44-8,66.3,66.3,0,0,1,3.62-9.76,14.18,14.18,0,0,1,2.58.44,16.21,16.21,0,0,1,2.63,1l-3,14.13h5.62l2.61-12.25h0l-5.25-1.74.3-1.81,5.37,1.56L26,17.19l-5.35-1.32-1.7,7.92a27.43,27.43,0,0,0-4.75-1.35,40.77,40.77,0,0,1,3.46-5.8,11.62,11.62,0,0,1,3.56-3.44l-.27,1.26Z"/></svg>